<?xml version="1.0" encoding="utf-8"?>
<!-- Generator: Adobe Illustrator 24.2.3, SVG Export Plug-In . SVG Version: 6.00 Build 0)  -->
<svg version="1.1" id="Layer_1" xmlns="http://www.w3.org/2000/svg" xmlns:xlink="http://www.w3.org/1999/xlink" x="0px" y="0px"
	 viewBox="0 0 20 20" style="enable-background:new 0 0 20 20;" xml:space="preserve">
<style type="text/css">
	.st0{fill:#1E3C5A;}
	.st1{fill:#77D3F1;}
	.st2{fill:#F47A6D;}
</style>
<g>
	<rect x="0" y="0" class="st0" width="20" height="20"/>
</g>
<g>
	<path class="st1" d="M7.9,4.6c2.4,0,3.5,1.5,3.5,3.2c0,1.3-0.6,2.8-2.3,3.3l2.5,4.3H9.5L7,11.2H4.2c-0.2,0-0.3,0.1-0.3,0.3v3.9H2
		v-4.3c0-1.2,0.5-1.7,1.7-1.7h4.2c1.1,0,1.5-0.7,1.5-1.5S9,6.5,7.9,6.5H2V4.6H7.9z"/>
	<path class="st2" d="M11.1,15.4l1-3.2h-1.3l0.2-0.9h1.5L13.1,9h-1.4l0.2-0.9h1.5l1-3.1h0.9l-1,3.1h1.5l1-3.1h0.9l-1,3.1H18L17.8,9
		h-1.4l-0.7,2.4h1.4l-0.2,0.9h-1.5l-1,3.2h-0.9l1-3.2H13l-1,3.2H11.1z M14.7,11.3L15.5,9H14l-0.7,2.4H14.7z"/>
</g>
</svg>
